<svg width="49" height="45" viewBox="0 0 49 45" fill="none" xmlns="http://www.w3.org/2000/svg">
<path d="M47.7111 44.6765C48.8414 44.2655 48.8414 42.5185 47.8139 42.2104C48.6358 39.9497 43.1898 35.3258 41.9569 33.887C39.799 31.3182 37.7439 28.7493 35.8943 25.9749C34.1475 23.3034 33.8392 22.2757 35.7916 19.7068C39.388 15.1856 43.7037 11.1782 46.5808 6.14317C47.1974 5.01287 48.8414 -0.638663 45.656 0.491643C45.656 0.491643 45.656 0.491643 45.5533 0.491643C45.3478 0.0806226 44.9368 -0.124887 44.3202 0.0806226C30.0373 7.17072 15.0352 13.5415 0.957762 21.4537C0.238477 21.8647 -0.0697883 23.0978 0.649497 23.6117C8.97249 30.188 19.248 32.7569 28.5987 37.4835C33.428 39.9497 41.9569 46.5261 47.7111 44.6765ZM29.2151 19.3986C29.1123 19.2958 29.1123 19.2958 29.0096 19.1931C29.1123 19.0903 29.2151 18.9876 29.3178 18.8848C29.6261 18.6793 29.8316 18.5765 30.1399 18.371C29.9344 18.6793 29.7288 18.8848 29.5233 19.1931C29.4207 19.2958 29.3178 19.3986 29.2151 19.3986Z" fill="#AC8BCD"/>
</svg>
